<svg xmlns="http://www.w3.org/2000/svg" xmlns:xlink="http://www.w3.org/1999/xlink" contentStyleType="text/css" height="407px" preserveAspectRatio="none" style="width:1391px;height:407px;background:#FFFFFF;" version="1.1" viewBox="0 0 1391 407" width="1391px" zoomAndPan="magnify"><defs/><g><!--cluster 361d7def5d07902fde63c2793966e2ac--><g id="cluster_361d7def5d07902fde63c2793966e2ac"><polygon fill="none" points="16,16,26,6,412,6,412,275.63,402,285.63,16,285.63,16,16" style="stroke:#181818;stroke-width:1.0;"/><line style="stroke:#181818;stroke-width:1.0;" x1="402" x2="412" y1="16" y2="6"/><line style="stroke:#181818;stroke-width:1.0;" x1="16" x2="402" y1="16" y2="16"/><line style="stroke:#181818;stroke-width:1.0;" x1="402" x2="402" y1="16" y2="285.63"/><text fill="#000000" font-family="sans-serif" font-size="14" font-weight="bold" lengthAdjust="spacing" textLength="115" x="152.5" y="31.9951">Otopencensus</text></g><!--cluster 1dd39ce6c754ff0b2a95ac41dd65e5cc--><g id="cluster_1dd39ce6c754ff0b2a95ac41dd65e5cc"><polygon fill="none" points="436,16,446,6,804,6,804,275.63,794,285.63,436,285.63,436,16" style="stroke:#181818;stroke-width:1.0;"/><line style="stroke:#181818;stroke-width:1.0;" x1="794" x2="804" y1="16" y2="6"/><line style="stroke:#181818;stroke-width:1.0;" x1="436" x2="794" y1="16" y2="16"/><line style="stroke:#181818;stroke-width:1.0;" x1="794" x2="794" y1="16" y2="285.63"/><text fill="#000000" font-family="sans-serif" font-size="14" font-weight="bold" lengthAdjust="spacing" textLength="87" x="572.5" y="31.9951">Otcollector</text></g><!--cluster bb584a56dfe8599664b54a4bc684f4d7--><g id="cluster_bb584a56dfe8599664b54a4bc684f4d7"><path d="M928.5,19.15 L982.5,19.15 A3.75,3.75 0 0 1 985,21.65 L992,41.4469 L1138.5,41.4469 A2.5,2.5 0 0 1 1141,43.9469 L1141,293.58 A2.5,2.5 0 0 1 1138.5,296.08 L928.5,296.08 A2.5,2.5 0 0 1 926,293.58 L926,21.65 A2.5,2.5 0 0 1 928.5,19.15 " fill="none" style="stroke:#000000;stroke-width:1.5;"/><line style="stroke:#000000;stroke-width:1.5;" x1="926" x2="992" y1="41.4469" y2="41.4469"/><text fill="#000000" font-family="sans-serif" font-size="14" font-weight="bold" lengthAdjust="spacing" textLength="53" x="930" y="34.1451">pages/</text></g><!--cluster c0988637d5ed90e146a0897241f29874--><g id="cluster_c0988637d5ed90e146a0897241f29874"><path d="M1167.5,19.15 L1371.5,19.15 A3.75,3.75 0 0 1 1374,21.65 L1381,41.4469 L1381.5,41.4469 A2.5,2.5 0 0 1 1384,43.9469 L1384,146.54 A2.5,2.5 0 0 1 1381.5,149.04 L1167.5,149.04 A2.5,2.5 0 0 1 1165,146.54 L1165,21.65 A2.5,2.5 0 0 1 1167.5,19.15 " fill="none" style="stroke:#000000;stroke-width:1.5;"/><line style="stroke:#000000;stroke-width:1.5;" x1="1165" x2="1381" y1="41.4469" y2="41.4469"/><text fill="#000000" font-family="sans-serif" font-size="14" font-weight="bold" lengthAdjust="spacing" textLength="203" x="1169" y="34.1451">instrumentation_example/</text></g><!--entity 7f72832caa24b27f2a6475d1554f1196--><g id="elem_7f72832caa24b27f2a6475d1554f1196"><rect fill="#F1F1F1" height="95.1875" rx="2.5" ry="2.5" style="stroke:#181818;stroke-width:0.5;" width="364" x="32" y="46"/><rect fill="#F1F1F1" height="10" style="stroke:#181818;stroke-width:0.5;" width="15" x="376" y="51"/><rect fill="#F1F1F1" height="2" style="stroke:#181818;stroke-width:0.5;" width="4" x="374" y="53"/><rect fill="#F1F1F1" height="2" style="stroke:#181818;stroke-width:0.5;" width="4" x="374" y="57"/><text fill="#000000" font-family="sans-serif" font-size="14" font-weight="bold" lengthAdjust="spacing" textLength="113" x="47" y="78.9951">otopencensus</text><text fill="#000000" font-family="sans-serif" font-size="14" lengthAdjust="spacing" textLength="4" x="47" y="95.292">&#160;</text><text fill="#000000" font-family="sans-serif" font-size="14" lengthAdjust="spacing" textLength="324" x="47" y="111.5889">image: rafaeljesus/opencensus-collector:latest</text><text fill="#000000" font-family="sans-serif" font-size="14" lengthAdjust="spacing" textLength="4" x="47" y="127.8857">&#160;</text></g><!--entity f963e96481c2648dd409f5d6faa3edc5--><g id="elem_f963e96481c2648dd409f5d6faa3edc5"><ellipse cx="168" cy="240.63" fill="#F1F1F1" rx="8" ry="8" style="stroke:#181818;stroke-width:0.5;"/><text fill="#000000" font-family="sans-serif" font-size="14" lengthAdjust="spacing" textLength="36" x="150" y="270.6251">8888</text></g><!--entity 8bcf0639820f3c76f8a37990aa9834d0--><g id="elem_8bcf0639820f3c76f8a37990aa9834d0"><ellipse cx="260" cy="240.63" fill="#F1F1F1" rx="8" ry="8" style="stroke:#181818;stroke-width:0.5;"/><text fill="#000000" font-family="sans-serif" font-size="14" lengthAdjust="spacing" textLength="45" x="237.5" y="270.6251">55678</text></g><!--entity 111c235c2744705d7ed83c8aed692fa3--><g id="elem_111c235c2744705d7ed83c8aed692fa3"><rect fill="#F1F1F1" height="95.1875" rx="2.5" ry="2.5" style="stroke:#181818;stroke-width:0.5;" width="336" x="452" y="46"/><rect fill="#F1F1F1" height="10" style="stroke:#181818;stroke-width:0.5;" width="15" x="768" y="51"/><rect fill="#F1F1F1" height="2" style="stroke:#181818;stroke-width:0.5;" width="4" x="766" y="53"/><rect fill="#F1F1F1" height="2" style="stroke:#181818;stroke-width:0.5;" width="4" x="766" y="57"/><text fill="#000000" font-family="sans-serif" font-size="14" font-weight="bold" lengthAdjust="spacing" textLength="85" x="467" y="78.9951">otcollector</text><text fill="#000000" font-family="sans-serif" font-size="14" lengthAdjust="spacing" textLength="4" x="467" y="95.292">&#160;</text><text fill="#000000" font-family="sans-serif" font-size="14" lengthAdjust="spacing" textLength="296" x="467" y="111.5889">image: otel/opentelemetry-collector:0.31.0</text><text fill="#000000" font-family="sans-serif" font-size="14" lengthAdjust="spacing" textLength="4" x="467" y="127.8857">&#160;</text></g><!--entity 5df48ae2d721b70fe2633c95cac64f39--><g id="elem_5df48ae2d721b70fe2633c95cac64f39"><ellipse cx="574" cy="240.63" fill="#F1F1F1" rx="8" ry="8" style="stroke:#181818;stroke-width:0.5;"/><text fill="#000000" font-family="sans-serif" font-size="14" lengthAdjust="spacing" textLength="36" x="556" y="270.6251">4317</text></g><!--entity 5f53a09a53650afc847250e6dcc5a8f6--><g id="elem_5f53a09a53650afc847250e6dcc5a8f6"><ellipse cx="666" cy="240.63" fill="#F1F1F1" rx="8" ry="8" style="stroke:#181818;stroke-width:0.5;"/><text fill="#000000" font-family="sans-serif" font-size="14" lengthAdjust="spacing" textLength="45" x="643.5" y="270.6251">55681</text></g><!--entity 484dae4444be928123c696f59b5d357d--><g id="elem_484dae4444be928123c696f59b5d357d"><rect fill="#F1F1F1" height="78.8906" rx="2.5" ry="2.5" style="stroke:#181818;stroke-width:0.5;" width="70" x="942" y="54.15"/><rect fill="#F1F1F1" height="10" style="stroke:#181818;stroke-width:0.5;" width="15" x="992" y="59.15"/><rect fill="#F1F1F1" height="2" style="stroke:#181818;stroke-width:0.5;" width="4" x="990" y="61.15"/><rect fill="#F1F1F1" height="2" style="stroke:#181818;stroke-width:0.5;" width="4" x="990" y="65.15"/><text fill="#000000" font-family="sans-serif" font-size="14" font-weight="bold" lengthAdjust="spacing" textLength="30" x="957" y="87.1451">urls</text><text fill="#000000" font-family="sans-serif" font-size="14" lengthAdjust="spacing" textLength="4" x="957" y="103.442">&#160;</text><text fill="#000000" font-family="sans-serif" font-size="14" lengthAdjust="spacing" textLength="4" x="957" y="119.7389">&#160;</text></g><!--entity 5821c27bb1cd733170f2eb9120e03566--><g id="elem_5821c27bb1cd733170f2eb9120e03566"><rect fill="#F1F1F1" height="78.8906" rx="2.5" ry="2.5" style="stroke:#181818;stroke-width:0.5;" width="86" x="942" y="201.19"/><rect fill="#F1F1F1" height="10" style="stroke:#181818;stroke-width:0.5;" width="15" x="1008" y="206.19"/><rect fill="#F1F1F1" height="2" style="stroke:#181818;stroke-width:0.5;" width="4" x="1006" y="208.19"/><rect fill="#F1F1F1" height="2" style="stroke:#181818;stroke-width:0.5;" width="4" x="1006" y="212.19"/><text fill="#000000" font-family="sans-serif" font-size="14" font-weight="bold" lengthAdjust="spacing" textLength="46" x="957" y="234.1851">views</text><text fill="#000000" font-family="sans-serif" font-size="14" lengthAdjust="spacing" textLength="4" x="957" y="250.482">&#160;</text><text fill="#000000" font-family="sans-serif" font-size="14" lengthAdjust="spacing" textLength="4" x="957" y="266.7789">&#160;</text></g><!--entity 47c9df9317d3fc5adcb7fd8c679811c9--><g id="elem_47c9df9317d3fc5adcb7fd8c679811c9"><rect fill="#F1F1F1" height="78.8906" rx="2.5" ry="2.5" style="stroke:#181818;stroke-width:0.5;" width="78" x="1047" y="54.15"/><rect fill="#F1F1F1" height="10" style="stroke:#181818;stroke-width:0.5;" width="15" x="1105" y="59.15"/><rect fill="#F1F1F1" height="2" style="stroke:#181818;stroke-width:0.5;" width="4" x="1103" y="61.15"/><rect fill="#F1F1F1" height="2" style="stroke:#181818;stroke-width:0.5;" width="4" x="1103" y="65.15"/><text fill="#000000" font-family="sans-serif" font-size="14" font-weight="bold" lengthAdjust="spacing" textLength="38" x="1062" y="87.1451">apps</text><text fill="#000000" font-family="sans-serif" font-size="14" lengthAdjust="spacing" textLength="4" x="1062" y="103.442">&#160;</text><text fill="#000000" font-family="sans-serif" font-size="14" lengthAdjust="spacing" textLength="4" x="1062" y="119.7389">&#160;</text></g><!--entity 09785ae99300c847eda77e84c45efc9e--><g id="elem_09785ae99300c847eda77e84c45efc9e"><rect fill="#F1F1F1" height="78.8906" rx="2.5" ry="2.5" style="stroke:#181818;stroke-width:0.5;" width="70" x="1239" y="54.15"/><rect fill="#F1F1F1" height="10" style="stroke:#181818;stroke-width:0.5;" width="15" x="1289" y="59.15"/><rect fill="#F1F1F1" height="2" style="stroke:#181818;stroke-width:0.5;" width="4" x="1287" y="61.15"/><rect fill="#F1F1F1" height="2" style="stroke:#181818;stroke-width:0.5;" width="4" x="1287" y="65.15"/><text fill="#000000" font-family="sans-serif" font-size="14" font-weight="bold" lengthAdjust="spacing" textLength="30" x="1254" y="87.1451">urls</text><text fill="#000000" font-family="sans-serif" font-size="14" lengthAdjust="spacing" textLength="4" x="1254" y="103.442">&#160;</text><text fill="#000000" font-family="sans-serif" font-size="14" lengthAdjust="spacing" textLength="4" x="1254" y="119.7389">&#160;</text></g><!--entity a1a92079db2c4e2c0e42e9790af3c87e--><g id="elem_a1a92079db2c4e2c0e42e9790af3c87e"><ellipse cx="168" cy="369.08" fill="#F1F1F1" rx="8" ry="8" style="stroke:#181818;stroke-width:0.5;"/><text fill="#000000" font-family="sans-serif" font-size="14" lengthAdjust="spacing" textLength="36" x="150" y="399.0751">8888</text></g><!--entity a6de8515b50bfb5fde33223b1dd25858--><g id="elem_a6de8515b50bfb5fde33223b1dd25858"><ellipse cx="260" cy="369.08" fill="#F1F1F1" rx="8" ry="8" style="stroke:#181818;stroke-width:0.5;"/><text fill="#000000" font-family="sans-serif" font-size="14" lengthAdjust="spacing" textLength="45" x="237.5" y="399.0751">55678</text></g><!--entity c661519e66f610e4ae167b9d7e309588--><g id="elem_c661519e66f610e4ae167b9d7e309588"><ellipse cx="574" cy="369.08" fill="#F1F1F1" rx="8" ry="8" style="stroke:#181818;stroke-width:0.5;"/><text fill="#000000" font-family="sans-serif" font-size="14" lengthAdjust="spacing" textLength="36" x="556" y="399.0751">4317</text></g><!--entity faf4e92f7a0dbf21e3eb1822bddc7bc1--><g id="elem_faf4e92f7a0dbf21e3eb1822bddc7bc1"><ellipse cx="666" cy="369.08" fill="#F1F1F1" rx="8" ry="8" style="stroke:#181818;stroke-width:0.5;"/><text fill="#000000" font-family="sans-serif" font-size="14" lengthAdjust="spacing" textLength="36" x="648" y="399.0751">4318</text></g><!--entity 754a022b5e103af3894dc2bf7ca62fa1--><g id="elem_754a022b5e103af3894dc2bf7ca62fa1"><rect fill="#F1F1F1" height="78.8906" rx="2.5" ry="2.5" style="stroke:#181818;stroke-width:0.5;" width="83" x="823.5" y="54.15"/><rect fill="#F1F1F1" height="10" style="stroke:#181818;stroke-width:0.5;" width="15" x="886.5" y="59.15"/><rect fill="#F1F1F1" height="2" style="stroke:#181818;stroke-width:0.5;" width="4" x="884.5" y="61.15"/><rect fill="#F1F1F1" height="2" style="stroke:#181818;stroke-width:0.5;" width="4" x="884.5" y="65.15"/><text fill="#000000" font-family="sans-serif" font-size="14" font-weight="bold" lengthAdjust="spacing" textLength="43" x="838.5" y="87.1451">client</text><text fill="#000000" font-family="sans-serif" font-size="14" lengthAdjust="spacing" textLength="4" x="838.5" y="103.442">&#160;</text><text fill="#000000" font-family="sans-serif" font-size="14" lengthAdjust="spacing" textLength="4" x="838.5" y="119.7389">&#160;</text></g><!--link 7f72832caa24b27f2a6475d1554f1196 to f963e96481c2648dd409f5d6faa3edc5--><g id="link_7f72832caa24b27f2a6475d1554f1196_f963e96481c2648dd409f5d6faa3edc5"><path codeLine="26" d="M199.07,141.69 C188.68,174.44 175.77,215.12 170.46,231.87 " fill="none" id="7f72832caa24b27f2a6475d1554f1196-f963e96481c2648dd409f5d6faa3edc5" style="stroke:#181818;stroke-width:1.0;"/></g><!--link f963e96481c2648dd409f5d6faa3edc5 to a1a92079db2c4e2c0e42e9790af3c87e--><g id="link_f963e96481c2648dd409f5d6faa3edc5_a1a92079db2c4e2c0e42e9790af3c87e"><path codeLine="27" d="M168,249.54 C168,272.25 168,337.47 168,360.17 " fill="none" id="f963e96481c2648dd409f5d6faa3edc5-a1a92079db2c4e2c0e42e9790af3c87e" style="stroke:#181818;stroke-width:1.0;"/></g><!--link 7f72832caa24b27f2a6475d1554f1196 to 8bcf0639820f3c76f8a37990aa9834d0--><g id="link_7f72832caa24b27f2a6475d1554f1196_8bcf0639820f3c76f8a37990aa9834d0"><path codeLine="28" d="M228.93,141.69 C239.32,174.44 252.23,215.12 257.54,231.87 " fill="none" id="7f72832caa24b27f2a6475d1554f1196-8bcf0639820f3c76f8a37990aa9834d0" style="stroke:#181818;stroke-width:1.0;"/></g><!--link 8bcf0639820f3c76f8a37990aa9834d0 to a6de8515b50bfb5fde33223b1dd25858--><g id="link_8bcf0639820f3c76f8a37990aa9834d0_a6de8515b50bfb5fde33223b1dd25858"><path codeLine="29" d="M260,249.54 C260,272.25 260,337.47 260,360.17 " fill="none" id="8bcf0639820f3c76f8a37990aa9834d0-a6de8515b50bfb5fde33223b1dd25858" style="stroke:#181818;stroke-width:1.0;"/></g><!--link 111c235c2744705d7ed83c8aed692fa3 to 5df48ae2d721b70fe2633c95cac64f39--><g id="link_111c235c2744705d7ed83c8aed692fa3_5df48ae2d721b70fe2633c95cac64f39"><path codeLine="30" d="M605.07,141.69 C594.68,174.44 581.77,215.12 576.46,231.87 " fill="none" id="111c235c2744705d7ed83c8aed692fa3-5df48ae2d721b70fe2633c95cac64f39" style="stroke:#181818;stroke-width:1.0;"/></g><!--link 5df48ae2d721b70fe2633c95cac64f39 to c661519e66f610e4ae167b9d7e309588--><g id="link_5df48ae2d721b70fe2633c95cac64f39_c661519e66f610e4ae167b9d7e309588"><path codeLine="31" d="M574,249.54 C574,272.25 574,337.47 574,360.17 " fill="none" id="5df48ae2d721b70fe2633c95cac64f39-c661519e66f610e4ae167b9d7e309588" style="stroke:#181818;stroke-width:1.0;"/></g><!--link 111c235c2744705d7ed83c8aed692fa3 to 5f53a09a53650afc847250e6dcc5a8f6--><g id="link_111c235c2744705d7ed83c8aed692fa3_5f53a09a53650afc847250e6dcc5a8f6"><path codeLine="32" d="M634.93,141.69 C645.32,174.44 658.23,215.12 663.54,231.87 " fill="none" id="111c235c2744705d7ed83c8aed692fa3-5f53a09a53650afc847250e6dcc5a8f6" style="stroke:#181818;stroke-width:1.0;"/></g><!--link 5f53a09a53650afc847250e6dcc5a8f6 to faf4e92f7a0dbf21e3eb1822bddc7bc1--><g id="link_5f53a09a53650afc847250e6dcc5a8f6_faf4e92f7a0dbf21e3eb1822bddc7bc1"><path codeLine="33" d="M666,249.54 C666,272.25 666,337.47 666,360.17 " fill="none" id="5f53a09a53650afc847250e6dcc5a8f6-faf4e92f7a0dbf21e3eb1822bddc7bc1" style="stroke:#181818;stroke-width:1.0;"/></g><!--link 484dae4444be928123c696f59b5d357d to 5821c27bb1cd733170f2eb9120e03566--><g id="link_484dae4444be928123c696f59b5d357d_5821c27bb1cd733170f2eb9120e03566"><path codeLine="63" d="M979.14,133.46 C980.3,154.36 981.3799,174.0491 982.5299,194.9191 " fill="none" id="484dae4444be928123c696f59b5d357d-to-5821c27bb1cd733170f2eb9120e03566" style="stroke:#181818;stroke-width:1.0;"/><polygon fill="#181818" points="982.86,200.91,986.3588,191.7036,982.5849,195.9176,978.3709,192.1437,982.86,200.91" style="stroke:#181818;stroke-width:1.0;"/></g><!--SRC=[ZPHBRjn838RtEeNWrOm19_LYLT6BkK8EC0W6B98LTA9kDRhbE8E1xnv6xVSi52qaGFZ98Z_-B9gc-Nw_-x4xV1aEi-XuzMcPZtfWFPplpbSZdSUOlHJH3k8Akj15S-HGC6BE6eZ7_uQHv_rnFkXX6KileSR0H26rK7gWd0g81qZTUypZtyFrzVpgZElhOTZjwOlUZYVgfDDNjRyVNmGtF4-JyZAVRYTQzBmCm-VXZp_7gshFMc7771Lpgfw3lKMIGoitTwAemh2g0NAvo6lZxdB46boFN7Al50kY8y8QaxZXuHd5yz5he1U9o9gvM3FTjK08nCb-Pr3WToIyjt8Y6AgKYWCfAZLo9PMCeLDy9F5yn2iGywBJIi2-kjVbzEyh2Ev3z1_S4uGKVLcB0-d9aWSfmRVYkeOS8oCmSKuzuXE4wY_o3f4S4iGCZZhNL08upS8CL7is26yOaoSCPW1fWPC6Tfg2eXc2Z64j-eunPT4A7XgurXkOQM8C8JPZ5Q12VLixv-p1e-RSixVCf3wNXeOiEeJwh7uSD_MaXh2GazQ3rwZDrn2Q29V6VjZqu8tSR9jcIx1csSJoMxLiEd9BSAbbY_cc8tzbsVJHbc3DiZdHtwjbowHRWikaj_no9FvcUpTU7Urz_hYQh3MeYI1BDwPeLrrga2WrpZNr9CLs_MNLKqr2cknfTb3r8NB6t04RI8GYwwhVdQRrihF5VOc46en3QSspb6Zxu7hGXZuuTH7ovRhyljFx_uUcmYWTBKPYjtQ5M-bIEHUi1XVNK3eUdo8VNlhS7SxBwMvlMMZPpOT_z0VjZvDUEcU7jUPO15JGgK-PNCKIaky1QqblEdTOAf0YHkT-qLUXKhGcJg2TKTzt_l0grcvHSZO6KE-YxKl591nQBqpPBE3NM9vsfdsCtkHiu_vha-bF]--></g></svg>